name rise49.5252peak65.1548fall88.8305.mot
datacolumns 19
datarows 24
range 2.45665100000000 2.49498500000000
endheader
time	ground_force1_vx	ground_force1_vy	ground_force1_vz	ground_force1_px	ground_force1_py	ground_force1_pz	ground_force2_vx	ground_force2_vy	ground_force2_vz	ground_force2_px	ground_force2_py	ground_force2_pz	ground_torque1_x	ground_torque1_y	ground_torque1_z	ground_torque2_x	ground_torque2_y	ground_torque2_z	
2.45665100000000	8.37442100000000	714.99804900000004	46.65635800000000	0.24983500000000	0.00000000000000	0.14607700000000	0.00000000000000	0.00000000000000	0.00000000000000	0.00000000000000	0.00000000000000	0.00000000000000	0.00000000000000	20.17583800000000	0.00000000000000	0.00000000000000	0.00000000000000	0.00000000000000	
2.45831400000000	8.13894200000000	715.20803500000000	46.62920900000000	0.24922400000000	0.00000000000000	0.14590700000000	0.00000000000000	0.00000000000000	0.00000000000000	0.00000000000000	0.00000000000000	0.00000000000000	0.00000000000000	20.20848100000000	0.00000000000000	0.00000000000000	0.00000000000000	0.00000000000000	
2.45998400000000	7.88945500000000	715.43433800000003	46.60461000000000	0.24860200000000	0.00000000000000	0.14573900000000	0.00000000000000	0.00000000000000	0.00000000000000	0.00000000000000	0.00000000000000	0.00000000000000	0.00000000000000	20.24772500000000	0.00000000000000	0.00000000000000	0.00000000000000	0.00000000000000	
2.46165300000000	7.62590800000000	715.67720299999996	46.58230200000000	0.24796600000000	0.00000000000000	0.14557100000000	0.00000000000000	0.00000000000000	0.00000000000000	0.00000000000000	0.00000000000000	0.00000000000000	0.00000000000000	20.29334200000000	0.00000000000000	0.00000000000000	0.00000000000000	0.00000000000000	
2.46331700000000	7.34827800000000	715.93694800000003	46.56204600000000	0.24731700000000	0.00000000000000	0.14540300000000	0.00000000000000	0.00000000000000	0.00000000000000	0.00000000000000	0.00000000000000	0.00000000000000	0.00000000000000	20.34510500000000	0.00000000000000	0.00000000000000	0.00000000000000	0.00000000000000	
2.46498900000000	7.05656600000000	716.21396200000004	46.54362800000000	0.24665200000000	0.00000000000000	0.14523600000000	0.00000000000000	0.00000000000000	0.00000000000000	0.00000000000000	0.00000000000000	0.00000000000000	0.00000000000000	20.40278900000000	0.00000000000000	0.00000000000000	0.00000000000000	0.00000000000000	
2.46665500000000	6.75080200000000	716.50870399999997	46.52685600000000	0.24597200000000	0.00000000000000	0.14507000000000	0.00000000000000	0.00000000000000	0.00000000000000	0.00000000000000	0.00000000000000	0.00000000000000	0.00000000000000	20.46617700000000	0.00000000000000	0.00000000000000	0.00000000000000	0.00000000000000	
2.46831800000000	6.43104000000000	716.82169599999997	46.51156700000000	0.24527500000000	0.00000000000000	0.14490500000000	0.00000000000000	0.00000000000000	0.00000000000000	0.00000000000000	0.00000000000000	0.00000000000000	0.00000000000000	20.53505400000000	0.00000000000000	0.00000000000000	0.00000000000000	0.00000000000000	
2.46998700000000	6.09735900000000	717.15351999999996	46.49761900000000	0.24456000000000	0.00000000000000	0.14474100000000	0.00000000000000	0.00000000000000	0.00000000000000	0.00000000000000	0.00000000000000	0.00000000000000	0.00000000000000	20.60921300000000	0.00000000000000	0.00000000000000	0.00000000000000	0.00000000000000	
2.47164900000000	5.74986300000000	717.50481600000001	46.48490100000000	0.24382700000000	0.00000000000000	0.14457800000000	0.00000000000000	0.00000000000000	0.00000000000000	0.00000000000000	0.00000000000000	0.00000000000000	0.00000000000000	20.68845200000000	0.00000000000000	0.00000000000000	0.00000000000000	0.00000000000000	
2.47331400000000	5.38868100000000	717.87627299999997	46.47332700000000	0.24307500000000	0.00000000000000	0.14441600000000	0.00000000000000	0.00000000000000	0.00000000000000	0.00000000000000	0.00000000000000	0.00000000000000	0.00000000000000	20.77258000000000	0.00000000000000	0.00000000000000	0.00000000000000	0.00000000000000	
2.47499700000000	5.01396300000000	718.26862700000004	46.46283900000000	0.24230400000000	0.00000000000000	0.14425600000000	0.00000000000000	0.00000000000000	0.00000000000000	0.00000000000000	0.00000000000000	0.00000000000000	0.00000000000000	20.86141000000000	0.00000000000000	0.00000000000000	0.00000000000000	0.00000000000000	
2.47664900000000	4.62588300000000	718.68265499999995	46.45340600000000	0.24151400000000	0.00000000000000	0.14409700000000	0.00000000000000	0.00000000000000	0.00000000000000	0.00000000000000	0.00000000000000	0.00000000000000	0.00000000000000	20.95476600000000	0.00000000000000	0.00000000000000	0.00000000000000	0.00000000000000	
2.47832200000000	4.22463600000000	719.11916799999995	46.44502700000000	0.24070400000000	0.00000000000000	0.14393900000000	0.00000000000000	0.00000000000000	0.00000000000000	0.00000000000000	0.00000000000000	0.00000000000000	0.00000000000000	21.05248100000000	0.00000000000000	0.00000000000000	0.00000000000000	0.00000000000000	
2.47998600000000	3.81043600000000	719.57900600000005	46.43772600000000	0.23987500000000	0.00000000000000	0.14378300000000	0.00000000000000	0.00000000000000	0.00000000000000	0.00000000000000	0.00000000000000	0.00000000000000	0.00000000000000	21.15439600000000	0.00000000000000	0.00000000000000	0.00000000000000	0.00000000000000	
2.48164900000000	3.38351800000000	720.06303500000001	46.43155500000000	0.23902700000000	0.00000000000000	0.14362900000000	0.00000000000000	0.00000000000000	0.00000000000000	0.00000000000000	0.00000000000000	0.00000000000000	0.00000000000000	21.26036100000000	0.00000000000000	0.00000000000000	0.00000000000000	0.00000000000000	
2.48332300000000	2.94413600000000	720.57213600000000	46.42659400000000	0.23815900000000	0.00000000000000	0.14347600000000	0.00000000000000	0.00000000000000	0.00000000000000	0.00000000000000	0.00000000000000	0.00000000000000	0.00000000000000	21.37023700000000	0.00000000000000	0.00000000000000	0.00000000000000	0.00000000000000	
2.48499000000000	2.49256100000000	721.10720100000003	46.42294700000000	0.23727300000000	0.00000000000000	0.14332600000000	0.00000000000000	0.00000000000000	0.00000000000000	0.00000000000000	0.00000000000000	0.00000000000000	0.00000000000000	21.48389300000000	0.00000000000000	0.00000000000000	0.00000000000000	0.00000000000000	
2.48665600000000	2.02908000000000	721.66912800000000	46.42074500000000	0.23636800000000	0.00000000000000	0.14317700000000	0.00000000000000	0.00000000000000	0.00000000000000	0.00000000000000	0.00000000000000	0.00000000000000	0.00000000000000	21.60120700000000	0.00000000000000	0.00000000000000	0.00000000000000	0.00000000000000	
2.48831600000000	1.55399500000000	722.25881300000003	46.42014200000000	0.23544600000000	0.00000000000000	0.14303000000000	0.00000000000000	0.00000000000000	0.00000000000000	0.00000000000000	0.00000000000000	0.00000000000000	0.00000000000000	21.72206700000000	0.00000000000000	0.00000000000000	0.00000000000000	0.00000000000000	
2.48998800000000	1.06762400000000	722.87714500000004	46.42131600000000	0.23450600000000	0.00000000000000	0.14288500000000	0.00000000000000	0.00000000000000	0.00000000000000	0.00000000000000	0.00000000000000	0.00000000000000	0.00000000000000	21.84636900000000	0.00000000000000	0.00000000000000	0.00000000000000	0.00000000000000	
2.49164900000000	0.57029700000000	723.52499799999998	46.42446700000000	0.23355000000000	0.00000000000000	0.14274200000000	0.00000000000000	0.00000000000000	0.00000000000000	0.00000000000000	0.00000000000000	0.00000000000000	0.00000000000000	21.97401700000000	0.00000000000000	0.00000000000000	0.00000000000000	0.00000000000000	
2.49332000000000	0.06235500000000	724.20322699999997	46.42981300000000	0.23257900000000	0.00000000000000	0.14260200000000	0.00000000000000	0.00000000000000	0.00000000000000	0.00000000000000	0.00000000000000	0.00000000000000	0.00000000000000	22.10492200000000	0.00000000000000	0.00000000000000	0.00000000000000	0.00000000000000	
2.49498500000000	-0.45584800000000	724.91265999999996	46.43759500000000	0.23159400000000	0.00000000000000	0.14246300000000	0.00000000000000	0.00000000000000	0.00000000000000	0.00000000000000	0.00000000000000	0.00000000000000	0.00000000000000	22.23900300000000	0.00000000000000	0.00000000000000	0.00000000000000	0.00000000000000	
